# xmcd
#
# Track frame offsets:
#	150
#	9047
#	23362
#	35012
#	45747
#	64265
#	76785
#	90865
#	100352
#	114885
#	128717
#	149835
#	166085
#	173067
#	178897
#	194962
#	201697
#	212440
#	228327
#	240685
#	253560
#	260070
#
# Disc length: 3640 seconds
#
# Revision: 2
# Processed by: cddbd v1.5.2PL0 Copyright (c) Steve Scherf et al.
# Submitted via: audiograbber 1.83.01
#
DISCID=2d0e3616
DTITLE=Various Artist - Deep River of Song:  Georgia: I'm Gonna Make You Happy
DYEAR=2001
DGENRE=Blues
TTITLE0=Blind Willie McTell - Boll Weevil
TTITLE1=Blind Willie McTell - Dying Crapshooter's Blues
TTITLE2=Camp Morris and group - Captain Haney Blues
TTITLE3=male convict group - Po' Laz'us
TTITLE4=Jessie Wadley, with John Wadley, Will Jones, and Felix Davenport - Long
TTITLE4=est Train I Ever Saw
TTITLE5=male convict group - OhLawdy Me, Oh Lawdy My
TTITLE6=Paul Sylvester and group - Hammer Ring
TTITLE7=Camp Morris and group of six men - Judgment
TTITLE8=Blind Willie McTell - Just As Well Get Ready, You Got to Die
TTITLE9=Sophie Wing and mixed group - All Night Long
TTITLE10=Blind Willie McTell - I GotTo Cross the River Jordan
TTITLE11=Buster Brown - I'm Gonna Make You Happy
TTITLE12=Sidney Stripling - Sally Walker
TTITLE13=Sidney Stripling - Coon Ci'nt (Coonjine)
TTITLE14=Sidney Stripling - Breakaway
TTITLE15=Gus Gibson and Sidney Stripling - Sevassafool (Sebastopol)
TTITLE16=Reese Crenshaw - John Henry
TTITLE17=John Lee Thomas - Fast Train
TTITLE18=Robert Davis - Poor Joe Breakdown
TTITLE19=Buster Brown - War Song
TTITLE20=James Sneed, J.F. Duffey, and Alvin Sanders - Southern Rag
TTITLE21=The Smith Band - Smithy Rag
EXTD=
EXTT0=
EXTT1=
EXTT2=
EXTT3=
EXTT4=
EXTT5=
EXTT6=
EXTT7=
EXTT8=
EXTT9=
EXTT10=
EXTT11=
EXTT12=
EXTT13=
EXTT14=
EXTT15=
EXTT16=
EXTT17=
EXTT18=
EXTT19=
EXTT20=
EXTT21=
PLAYORDER=
